<svg xmlns="http://www.w3.org/2000/svg" viewBox="0 0 30 20"><rect width="30" height="20" fill="#006c35"/><g fill="none" stroke="#fff" stroke-linecap="round" stroke-linejoin="round"><path d="M6 6.2c1.2-1 1.6 1 2.8 0s1.6 1 2.8 0 1.6 1 2.8 0 1.6 1 2.8 0 1.6 1 2.8 0" stroke-width="1.1"/><path d="M8 8.8c1.5-.8 2 .8 3.5 0s2 .8 3.5 0 2 .8 3.5 0" stroke-width=".9"/><path d="M7 14.2h16" stroke-width=".7"/></g><path d="M6.5 14.8h17v.9h-17z" fill="#fff"/><path d="M23.5 14.8l1.2.45-1.2.45z" fill="#fff"/><path d="M6.5 14.4h2.2v1.7H6.5z" fill="#fff"/></svg>
